<?xml version="1.0" encoding="UTF-8"?>
<!DOCTYPE svg PUBLIC "-//W3C//DTD SVG 1.1//EN" "http://www.w3.org/Graphics/SVG/1.1/DTD/svg11.dtd">
<!-- Creator: CorelDRAW X8 -->
<svg xmlns="http://www.w3.org/2000/svg" xml:space="preserve" width="20.3198mm" height="4.2332mm" version="1.1" style="shape-rendering:geometricPrecision; text-rendering:geometricPrecision; image-rendering:optimizeQuality; fill-rule:evenodd; clip-rule:evenodd"
viewBox="0 0 2032 423"
 xmlns:xlink="http://www.w3.org/1999/xlink">
 <defs>
  <style type="text/css">
   <![CDATA[
    .fil1 {fill:#76C38F;fill-rule:nonzero}
    .fil0 {fill:white;fill-rule:nonzero}
   ]]>
  </style>
 </defs>
 <g id="Layer_x0020_1">
  <metadata id="CorelCorpID_0Corel-Layer"/>
  <path class="fil0" d="M32 192c-21,-21 -32,-47 -32,-80 0,-32 11,-58 32,-79 22,-21 48,-31 79,-31 24,0 46,6 64,19 19,12 32,30 40,53l-63 0c-9,-16 -22,-24 -40,-24 -18,0 -32,6 -43,17 -10,11 -15,27 -15,45 0,19 5,35 15,46 11,11 25,17 42,17 13,0 23,-3 31,-10 8,-6 13,-14 16,-25l-61 0 0 -40 118 0 0 40c-4,20 -15,38 -33,56 -8,8 -19,15 -31,20 -13,5 -26,7 -40,7 -31,0 -57,-10 -79,-31zm217 30l0 -217 53 0 0 217 -53 0zm240 -218l53 0 0 218 -53 0 -88 -137 0 137 -53 0 0 -218 53 0 88 137 0 -137zm237 218l-12 -37 -78 0 -12 37 -56 0 75 -218 65 0 75 218 -57 0zm-77 -77l52 0 -26 -77 -26 77zm326 -102c-7,0 -12,2 -16,6 -5,3 -7,8 -7,15 0,6 2,12 6,16 4,4 9,7 15,9 7,2 14,4 21,6 8,2 16,4 23,7 8,3 15,6 21,10 7,5 12,10 16,18 3,7 5,16 5,27 0,18 -7,34 -22,47 -15,13 -35,20 -59,20 -24,0 -44,-6 -59,-18 -15,-12 -22,-28 -22,-50l56 0c1,17 10,26 26,26 8,0 14,-2 18,-6 5,-4 7,-9 7,-15 0,-7 -2,-12 -6,-15 -4,-4 -9,-7 -15,-10 -7,-2 -14,-4 -21,-6 -8,-2 -16,-4 -23,-7 -8,-3 -15,-7 -21,-11 -7,-4 -12,-9 -16,-17 -3,-8 -5,-16 -5,-27 0,-20 7,-36 22,-48 15,-12 34,-18 58,-18 23,0 42,5 56,15 15,11 22,28 23,51l-57 0c-1,-8 -4,-14 -8,-18 -4,-5 -10,-7 -16,-7zm235 179l-52 0 0 -70 -75 -147 60 0 41 98 42 -98 60 0 -76 147 0 70zm103 -217l53 0 0 176 66 0 0 41 -119 0 0 -217zm204 217l-77 -217 57 0 53 165 54 -165 56 0 -77 217 -66 0zm300 -218l0 40 -79 0 0 47 70 0 0 40 -70 0 0 50 79 0 0 41 -131 0 0 -218 131 0zm98 133l0 85 -53 0 0 -217 86 0c25,0 45,6 59,19 14,13 21,29 21,47 0,13 -4,25 -12,37 -7,12 -20,20 -37,25l53 89 -62 0 -49 -85 -6 0zm0 -92l0 52 33 0c8,0 14,-2 19,-7 5,-5 7,-11 7,-19 0,-7 -2,-14 -7,-19 -5,-5 -11,-7 -19,-7l-33 0z"/>
  <path class="fil1" d="M0 287l32 0c5,0 9,1 13,2 4,2 7,4 10,6 2,3 4,6 5,9 2,4 2,8 2,12 0,4 0,7 -1,10 -1,3 -3,6 -5,8 -2,2 -4,4 -6,6 -3,1 -5,3 -7,4l25 40 -16 0 -23 -38 -16 0 0 38 -13 0 0 -97zm13 48l12 0c3,0 6,-1 9,-1 3,-1 5,-2 7,-3 2,-2 4,-4 5,-6 1,-2 2,-5 2,-8 0,-6 -2,-11 -6,-14 -3,-3 -8,-4 -15,-4l-14 0 0 36zm130 13l-52 0 0 1c0,8 2,14 6,18 5,5 11,7 18,7 4,0 7,0 10,-1 3,-1 7,-2 10,-3l3 10c-3,1 -6,2 -10,3 -4,1 -9,1 -13,1 -6,0 -11,0 -15,-2 -5,-1 -9,-3 -12,-6 -4,-3 -7,-7 -9,-11 -2,-5 -3,-11 -3,-17 0,-5 1,-10 3,-15 2,-4 4,-8 7,-11 3,-4 7,-6 11,-8 5,-1 10,-2 15,-2 5,0 9,0 13,2 3,1 7,3 9,6 3,3 5,6 6,9 2,4 3,8 3,13l0 6zm-14 -9c0,-3 -1,-5 -1,-7 -1,-2 -2,-4 -3,-5 -2,-2 -4,-3 -6,-4 -2,-1 -5,-1 -8,-1 -5,0 -10,1 -13,4 -4,3 -6,8 -7,13l38 0zm43 45l-13 0 0 -72 10 0 2 11c4,-4 8,-7 12,-8 4,-2 8,-3 13,-3 8,0 14,2 18,6 4,4 6,10 6,17l0 49 -14 0 0 -47c0,-4 -1,-8 -3,-10 -2,-3 -6,-4 -11,-4 -7,0 -13,3 -20,9l0 52zm117 -108l14 0 0 108 -12 0 -1 -9 -1 0c-3,3 -6,6 -9,7 -4,2 -8,2 -13,2 -4,0 -7,0 -11,-2 -4,-1 -7,-4 -10,-7 -3,-3 -5,-6 -7,-11 -2,-4 -2,-10 -2,-16 0,-5 0,-10 2,-15 1,-4 3,-8 6,-11 3,-4 6,-6 10,-8 4,-1 9,-2 14,-2 4,0 8,0 11,1 3,2 6,3 9,6l0 -43zm0 54c-5,-5 -10,-8 -17,-8 -3,0 -5,0 -8,1 -3,1 -5,3 -7,5 -2,2 -4,5 -5,8 -1,3 -2,7 -2,12 0,4 1,8 2,12 1,3 3,6 5,8 1,2 4,4 6,4 2,1 5,2 7,2 8,0 14,-3 19,-10l0 -34zm96 18l-52 0 0 1c0,8 3,14 7,18 4,5 10,7 18,7 4,0 7,0 10,-1 3,-1 7,-2 10,-3l3 10c-3,1 -7,2 -11,3 -4,1 -8,1 -13,1 -5,0 -10,0 -14,-2 -5,-1 -9,-3 -13,-6 -3,-3 -6,-7 -8,-11 -2,-5 -3,-11 -3,-17 0,-5 1,-10 3,-15 1,-4 4,-8 7,-11 3,-4 7,-6 11,-8 4,-1 9,-2 15,-2 4,0 9,0 12,2 4,1 7,3 10,6 3,3 5,6 6,9 2,4 2,8 2,13l0 6zm-14 -9c0,-3 0,-5 -1,-7 0,-2 -1,-4 -3,-5 -1,-2 -3,-3 -5,-4 -2,-1 -5,-1 -8,-1 -6,0 -10,1 -14,4 -3,3 -5,8 -6,13l37 0zm79 -19l-39 54 40 0 0 10 -56 0 0 -8 38 -54 -36 0 0 -10 53 0 0 8zm59 -8l15 0 -27 72 -13 0 -28 -72 15 0 16 50 3 11 1 0 2 -11 16 -50zm89 36l-52 0 0 1c0,8 2,14 6,18 5,5 11,7 18,7 4,0 8,0 11,-1 3,-1 6,-2 10,-3l2 10c-3,1 -6,2 -10,3 -4,1 -9,1 -13,1 -5,0 -10,0 -15,-2 -4,-1 -9,-3 -12,-6 -3,-3 -6,-7 -8,-11 -2,-5 -3,-11 -3,-17 0,-5 1,-10 2,-15 2,-4 4,-8 7,-11 4,-4 7,-6 12,-8 4,-1 9,-2 14,-2 5,0 9,0 13,2 4,1 7,3 10,6 2,3 4,6 6,9 1,4 2,8 2,13l0 6zm-14 -9c0,-3 0,-5 -1,-7 -1,-2 -2,-4 -3,-5 -2,-2 -3,-3 -6,-4 -2,-1 -4,-1 -7,-1 -6,0 -11,1 -14,4 -4,3 -6,8 -7,13l38 0zm1 -62l-15 20 -12 0 11 -20 16 0zm43 107l-14 0 0 -72 11 0 2 11c3,-4 7,-7 11,-8 4,-2 8,-3 14,-3 7,0 13,2 17,6 4,4 6,10 6,17l0 49 -13 0 0 -47c0,-4 -1,-8 -4,-10 -2,-3 -6,-4 -10,-4 -7,0 -14,3 -20,9l0 52zm59 -72l15 0 15 41 5 18 1 0 5 -18 14 -41 14 0 -28 78c-3,9 -7,16 -12,21 -4,5 -10,9 -16,11l-6 -11c5,-2 9,-5 13,-8 3,-4 6,-8 8,-15l2 -4 -30 -72zm148 -25c7,0 13,1 19,3 6,2 11,5 15,9 5,4 8,8 10,14 3,6 4,13 4,21 0,9 -1,17 -4,23 -3,7 -7,12 -12,16 -5,4 -10,7 -17,9 -6,1 -13,2 -20,2l-27 0 0 -97 32 0zm-17 86l10 0c5,0 10,-1 15,-2 5,-1 9,-3 12,-6 4,-3 7,-7 9,-12 3,-5 4,-12 4,-19 0,-6 -1,-11 -3,-15 -1,-5 -4,-8 -7,-11 -3,-3 -7,-5 -11,-7 -4,-1 -9,-2 -15,-2l-14 0 0 74zm103 -86l0 80c0,7 -1,13 -1,17 -1,5 -3,9 -5,12 -3,5 -7,8 -12,10 -5,1 -10,2 -15,2l0 -12c6,0 11,-1 14,-5 2,-2 3,-5 3,-8 1,-3 1,-6 1,-9l0 -87 15 0zm117 61l-52 0 0 1c0,8 2,14 7,18 4,5 10,7 17,7 4,0 8,0 11,-1 3,-1 6,-2 10,-3l3 10c-3,1 -7,2 -11,3 -4,1 -8,1 -13,1 -5,0 -10,0 -15,-2 -4,-1 -8,-3 -12,-6 -3,-3 -6,-7 -8,-11 -2,-5 -3,-11 -3,-17 0,-5 1,-10 2,-15 2,-4 5,-8 8,-11 3,-4 6,-6 11,-8 4,-1 9,-2 15,-2 4,0 8,0 12,2 4,1 7,3 10,6 2,3 4,6 6,9 1,4 2,8 2,13l0 6zm-14 -9c0,-3 0,-5 -1,-7 -1,-2 -2,-4 -3,-5 -1,-2 -3,-3 -5,-4 -3,-1 -5,-1 -8,-1 -6,0 -11,1 -14,4 -4,3 -6,8 -7,13l38 0zm1 -62l-15 20 -11 0 10 -20 16 0zm70 49c-4,-1 -7,-2 -9,-3 -3,-1 -6,-1 -9,-1 -5,0 -8,1 -11,3 -2,1 -3,4 -3,7 0,2 1,3 2,5 2,2 5,3 11,5l4 1c7,2 12,4 16,8 3,3 5,7 5,12 0,7 -2,12 -7,16 -5,4 -12,5 -21,5 -4,0 -9,0 -13,-1 -4,-1 -8,-2 -11,-3l3 -11c3,2 6,3 10,4 3,1 7,1 11,1 4,0 8,-1 11,-2 2,-2 4,-5 4,-8 0,-3 -1,-6 -4,-7 -2,-1 -6,-3 -10,-4l-5 -2c-6,-2 -11,-4 -15,-7 -3,-3 -5,-8 -5,-13 0,-2 1,-5 2,-8 2,-2 4,-4 6,-6 2,-2 5,-3 8,-4 3,-1 7,-1 11,-1 3,0 7,0 11,1 4,0 7,1 11,3l-3 10zm58 -39l30 0c6,0 10,1 14,2 4,1 8,3 11,6 3,2 5,5 7,9 1,4 2,8 2,13 0,5 -1,9 -2,13 -2,4 -5,7 -8,9 -3,3 -7,5 -11,6 -4,1 -9,2 -14,2l-15 0 0 37 -14 0 0 -97zm14 48l9 0c4,0 7,0 11,-1 3,0 6,-1 8,-2 2,-2 4,-4 5,-6 2,-2 2,-6 2,-9 0,-4 0,-6 -1,-9 -2,-2 -3,-4 -6,-5 -2,-2 -4,-3 -7,-4 -2,0 -5,0 -8,0l-13 0 0 36zm66 -16c2,-1 4,-2 6,-3 3,-1 5,-2 7,-2 2,-1 4,-2 7,-2 2,0 4,0 7,0 4,0 8,0 11,1 3,1 6,2 9,4 2,2 4,5 5,8 2,4 2,8 2,13l0 46 -11 0 -2 -9 0 0c-3,4 -7,6 -10,7 -4,2 -9,2 -13,2 -4,0 -7,0 -10,-1 -3,-1 -5,-2 -7,-4 -3,-2 -4,-4 -5,-7 -2,-2 -2,-5 -2,-8 0,-8 3,-14 9,-18 6,-4 14,-6 24,-6l14 0 0 -5c0,-5 -2,-8 -4,-10 -3,-1 -7,-2 -11,-2 -3,0 -6,0 -9,1 -4,1 -8,2 -12,4l-5 -9zm41 31l-12 0c-7,0 -13,1 -16,4 -3,2 -5,5 -5,9 0,2 0,4 1,6 1,1 2,2 3,3 1,1 3,2 4,2 2,0 3,0 5,0 3,0 7,0 10,-2 4,-2 7,-4 10,-8l0 -14zm33 34l0 -72 10 0 2 15c2,-4 5,-8 9,-11 4,-3 9,-4 14,-4 3,0 5,0 6,0 2,0 4,1 5,1l-2 13c-2,-1 -3,-1 -4,-2 -2,0 -4,0 -6,0 -3,0 -6,0 -8,1 -3,1 -5,3 -7,5 -2,2 -3,4 -4,7 -1,3 -2,7 -2,10l0 37 -13 0zm96 -62l-22 0 0 42c0,4 1,6 3,7 2,2 4,2 7,2 2,0 4,0 7,0 2,-1 4,-1 6,-2l2 10c-2,1 -4,2 -7,2 -4,1 -7,1 -10,1 -8,0 -13,-1 -16,-4 -3,-4 -5,-8 -5,-14l0 -44 -11 0 0 -10 11 0 0 -23 13 0 0 23 22 0 0 10zm9 -10l14 0 15 41 6 18 0 0 5 -18 14 -41 14 0 -28 78c-3,9 -7,16 -11,21 -5,5 -11,9 -17,11l-6 -11c5,-2 9,-5 13,-8 4,-4 7,-8 9,-15l1 -4 -29 -72zm120 14c-3,-1 -6,-2 -9,-3 -3,-1 -5,-1 -8,-1 -5,0 -9,1 -11,3 -2,1 -4,4 -4,7 0,2 1,3 3,5 2,2 5,3 10,5l5 1c7,2 12,4 15,8 4,3 6,7 6,12 0,7 -3,12 -8,16 -4,4 -11,5 -20,5 -5,0 -9,0 -13,-1 -5,-1 -8,-2 -11,-3l3 -11c3,2 6,3 10,4 3,1 7,1 10,1 5,0 9,-1 11,-2 3,-2 4,-5 4,-8 0,-3 -1,-6 -3,-7 -3,-1 -6,-3 -10,-4l-5 -2c-7,-2 -12,-4 -15,-7 -3,-3 -5,-8 -5,-13 0,-2 1,-5 2,-8 1,-2 3,-4 6,-6 2,-2 5,-3 8,-4 3,-1 7,-1 10,-1 4,0 8,0 12,1 3,0 7,1 11,3l-4 10zm71 -6l-38 54 39 0 0 10 -56 0 0 -8 38 -54 -35 0 0 -10 52 0 0 8zm77 28l-52 0 0 1c0,8 2,14 6,18 5,5 10,7 18,7 4,0 7,0 10,-1 3,-1 7,-2 10,-3l3 10c-3,1 -6,2 -10,3 -4,1 -9,1 -13,1 -6,0 -11,0 -15,-2 -5,-1 -9,-3 -12,-6 -4,-3 -7,-7 -9,-11 -2,-5 -3,-11 -3,-17 0,-5 1,-10 3,-15 2,-4 4,-8 7,-11 3,-4 7,-6 11,-8 5,-1 10,-2 15,-2 5,0 9,0 13,2 3,1 7,3 9,6 3,3 5,6 6,9 2,4 3,8 3,13l0 6zm-14 -9c0,-3 -1,-5 -1,-7 -1,-2 -2,-4 -4,-5 -1,-2 -3,-3 -5,-4 -2,-1 -5,-1 -8,-1 -5,0 -10,1 -14,4 -3,3 -5,8 -6,13l38 0zm29 45l0 -72 11 0 2 15c2,-4 4,-8 8,-11 4,-3 9,-4 14,-4 3,0 5,0 7,0 2,0 3,1 5,1l-3 13c-1,-1 -2,-1 -4,-2 -1,0 -3,0 -5,0 -3,0 -6,0 -9,1 -2,1 -4,3 -6,5 -2,2 -4,4 -5,7 -1,3 -1,7 -1,10l0 37 -14 0zm103 -72l14 0 -27 72 -13 0 -27 -72 14 0 17 50 2 11 1 0 3 -11 16 -50zm88 36l-52 0 0 1c0,8 2,14 7,18 4,5 10,7 17,7 4,0 8,0 11,-1 3,-1 6,-2 10,-3l3 10c-3,1 -7,2 -11,3 -4,1 -8,1 -13,1 -5,0 -10,0 -15,-2 -4,-1 -8,-3 -12,-6 -3,-3 -6,-7 -8,-11 -2,-5 -3,-11 -3,-17 0,-5 1,-10 2,-15 2,-4 5,-8 8,-11 3,-4 6,-6 11,-8 4,-1 9,-2 15,-2 4,0 8,0 12,2 4,1 7,3 10,6 2,3 4,6 6,9 1,4 2,8 2,13l0 6zm-14 -9c0,-3 0,-5 -1,-7 -1,-2 -2,-4 -3,-5 -1,-2 -3,-3 -5,-4 -2,-1 -5,-1 -8,-1 -6,0 -10,1 -14,4 -4,3 -6,8 -7,13l38 0zm79 -19l-39 54 39 0 0 10 -55 0 0 -8 38 -54 -36 0 0 -10 53 0 0 8zm81 27c0,6 -1,11 -3,16 -2,5 -4,9 -7,12 -4,3 -7,5 -12,7 -4,2 -9,2 -14,2 -5,0 -9,0 -14,-2 -4,-1 -8,-4 -11,-7 -3,-3 -5,-7 -7,-11 -2,-4 -3,-10 -3,-15 0,-6 1,-11 3,-16 2,-5 4,-9 7,-12 4,-3 7,-5 12,-7 4,-2 9,-2 14,-2 5,0 10,0 14,2 4,1 8,4 11,7 3,3 5,6 7,11 2,4 3,9 3,15zm-14 1c0,-5 -1,-9 -2,-12 -1,-3 -3,-6 -5,-8 -2,-2 -4,-4 -7,-4 -2,-1 -5,-2 -8,-2 -2,0 -5,1 -7,1 -3,1 -5,3 -7,4 -2,2 -4,5 -5,8 -1,4 -2,8 -2,13 0,5 1,9 2,12 1,3 3,6 5,8 2,2 4,4 7,4 2,1 5,2 8,2 2,0 5,0 8,-1 2,-1 4,-3 6,-5 2,-2 4,-4 5,-8 1,-3 2,-7 2,-12zm-31 -51l-11 0 12 -20 15 0 -16 20zm24 0l-10 0 11 -20 16 0 -17 20z"/>
 </g>
</svg>
